<svg width="100" height="100" viewBox="0 0 100 100" fill="none" xmlns="http://www.w3.org/2000/svg">
<path d="M61.2625 87.5H12.5V25H81.25V67.835L61.2625 87.5Z" fill="#190083"/>
<path d="M67.5125 81.25H18.75V18.75H87.5V61.585L67.5125 81.25Z" fill="#6490F2"/>
<path fill-rule="evenodd" clip-rule="evenodd" d="M66.8983 79.75L86 60.9565V20.25H20.25V79.75H66.8983ZM87.5 61.585L67.5125 81.25H18.75V18.75H87.5V61.585Z" fill="#190083"/>
<path fill-rule="evenodd" clip-rule="evenodd" d="M66.7625 60.585H87V62.085H68.2625V80.5H66.7625V60.585Z" fill="#190083"/>
<path d="M34.375 15.625C34.375 13.9 35.775 12.5 37.5 12.5C39.225 12.5 40.625 13.9 40.625 15.625V24.375C40.625 26.1 39.225 27.5 37.5 27.5C35.775 27.5 34.375 26.1 34.375 24.375V15.625Z" fill="#6490F2"/>
<path fill-rule="evenodd" clip-rule="evenodd" d="M32.875 15.625C32.875 13.0716 34.9466 11 37.5 11C40.0534 11 42.125 13.0716 42.125 15.625V24.375C42.125 26.9284 40.0534 29 37.5 29C34.9466 29 32.875 26.9284 32.875 24.375V15.625ZM37.5 12.5C35.775 12.5 34.375 13.9 34.375 15.625V24.375C34.375 26.1 35.775 27.5 37.5 27.5C39.225 27.5 40.625 26.1 40.625 24.375V15.625C40.625 13.9 39.225 12.5 37.5 12.5Z" fill="#190083"/>
<path d="M65.75 15.625C65.75 13.9 67.15 12.5 68.875 12.5C70.6 12.5 72 13.9 72 15.625V24.375C72 26.1 70.6 27.5 68.875 27.5C67.15 27.5 65.75 26.1 65.75 24.375V15.625Z" fill="#6490F2"/>
<path fill-rule="evenodd" clip-rule="evenodd" d="M64.25 15.625C64.25 13.0716 66.3216 11 68.875 11C71.4284 11 73.5 13.0716 73.5 15.625V24.375C73.5 26.9284 71.4284 29 68.875 29C66.3216 29 64.25 26.9284 64.25 24.375V15.625ZM68.875 12.5C67.15 12.5 65.75 13.9 65.75 15.625V24.375C65.75 26.1 67.15 27.5 68.875 27.5C70.6 27.5 72 26.1 72 24.375V15.625C72 13.9 70.6 12.5 68.875 12.5Z" fill="#190083"/>
</svg>
