<svg width="100" height="100" viewBox="0 0 100 100" fill="none" xmlns="http://www.w3.org/2000/svg">
<path d="M75 31.25H12.5V81.25H75V31.25Z" fill="#190083"/>
<path fill-rule="evenodd" clip-rule="evenodd" d="M11.75 30.5H75.75V82H11.75V30.5ZM13.25 32V80.5H74.25V32H13.25Z" fill="#190083"/>
<path d="M81.25 25H18.75V75H81.25V25Z" fill="#F3E02B"/>
<path fill-rule="evenodd" clip-rule="evenodd" d="M18 25C18 24.5858 18.3358 24.25 18.75 24.25H81.25C81.6642 24.25 82 24.5858 82 25V75C82 75.4142 81.6642 75.75 81.25 75.75H18.75C18.3358 75.75 18 75.4142 18 75V25ZM19.5 25.75V74.25H80.5V25.75H19.5Z" fill="#190083"/>
<path d="M49.75 47.7075L18.75 25H81.25L49.75 47.7075Z" fill="#F3E02B"/>
<path fill-rule="evenodd" clip-rule="evenodd" d="M18.0371 24.7669C18.138 24.4585 18.4256 24.25 18.75 24.25H81.25C81.5754 24.25 81.8637 24.4599 81.9637 24.7696C82.0637 25.0793 81.9526 25.4181 81.6886 25.6084L50.1886 48.3159C49.925 48.5059 49.569 48.5046 49.3068 48.3125L18.3068 25.605C18.0451 25.4134 17.9363 25.0752 18.0371 24.7669ZM21.0431 25.75L49.7535 46.7804L78.927 25.75H21.0431Z" fill="#190083"/>
<path d="M80 33.75C84.1425 33.75 87.5 30.3925 87.5 26.25C87.5 22.1075 84.1425 18.75 80 18.75C75.8575 18.75 72.5 22.1075 72.5 26.25C72.5 30.3925 75.8575 33.75 80 33.75Z" fill="#190083"/>
</svg>
