<svg width="100" height="100" viewBox="0 0 100 100" fill="none" xmlns="http://www.w3.org/2000/svg">
<path d="M69.5 21.25L69.5 85L18.25 85L18.25 21.25L69.5 21.25Z" fill="#190083" stroke="#190083" stroke-width="5" stroke-miterlimit="10"/>
<path d="M22 81.25L78.25 81.25L78.25 12.5L22 12.5L22 81.25Z" fill="#FFC7B4"/>
<path fill-rule="evenodd" clip-rule="evenodd" d="M23.5 79.75L76.75 79.75L76.75 14L23.5 14L23.5 79.75ZM22 81.25L22 12.5L78.25 12.5L78.25 81.25L22 81.25Z" fill="#190083"/>
<path d="M82.67 26.83C81.45 25.61 79.85 25 78.25 25C76.65 25 75.05 25.61 73.83 26.83C71.39 29.27 71.39 33.2275 73.83 35.6675C75.05 36.89 76.65 37.5 78.25 37.5C79.85 37.5 81.45 36.89 82.67 35.67C85.11 33.2275 85.11 29.2725 82.67 26.83Z" fill="#190083"/>
<path fill-rule="evenodd" clip-rule="evenodd" d="M74.8907 34.6068L74.8917 34.6079C75.8186 35.5367 77.0314 36 78.25 36C79.4688 36 80.6822 35.5365 81.6093 34.6093C83.4635 32.7526 83.4635 29.7474 81.6093 27.8907C81.6093 27.8906 81.6092 27.8906 81.6092 27.8905M81.6092 27.8905C80.6821 26.9635 79.4688 26.5 78.25 26.5C77.0312 26.5 75.8178 26.9635 74.8907 27.8907C73.0364 29.7449 73.0364 32.7526 74.8907 34.6068M82.67 35.67C81.45 36.89 79.85 37.5 78.25 37.5C76.65 37.5 75.05 36.89 73.83 35.6675C71.39 33.2275 71.39 29.27 73.83 26.83C75.05 25.61 76.65 25 78.25 25C79.85 25 81.45 25.61 82.67 26.83C85.11 29.2725 85.11 33.2275 82.67 35.67Z" fill="#190083"/>
<path d="M81.9049 29.615L80.6224 28.335L77.2624 31.6975L75.9624 30.395L74.6799 31.68L77.2599 34.26L77.2624 34.2575L77.2674 34.26L81.9049 29.615Z" fill="#FFC7B4"/>
<path d="M82.67 42.4554C81.45 41.2351 79.85 40.625 78.25 40.625C76.65 40.625 75.05 41.2351 73.83 42.4554C71.39 44.8959 71.39 48.8541 73.83 51.2946C75.05 52.5149 76.65 53.125 78.25 53.125C79.85 53.125 81.45 52.5149 82.67 51.2946C85.11 48.8541 85.11 44.8984 82.67 42.4554Z" fill="#190083"/>
<path fill-rule="evenodd" clip-rule="evenodd" d="M81.6092 43.5159C80.6821 42.5886 79.4687 42.125 78.25 42.125C77.0313 42.125 75.8179 42.5886 74.8908 43.5159C73.0364 45.3706 73.0364 48.3794 74.8908 50.2341C75.8179 51.1614 77.0313 51.625 78.25 51.625C79.4687 51.625 80.6821 51.1614 81.6092 50.2341C83.4631 48.3798 83.4641 45.3736 81.6092 43.5159ZM82.67 42.4554C81.45 41.2351 79.85 40.625 78.25 40.625C76.65 40.625 75.05 41.2351 73.83 42.4554C71.39 44.8959 71.39 48.8541 73.83 51.2946C75.05 52.5149 76.65 53.125 78.25 53.125C79.85 53.125 81.45 52.5149 82.67 51.2946C85.11 48.8541 85.11 44.8984 82.67 42.4554Z" fill="#190083"/>
<path d="M81.9049 45.24L80.6224 43.96L77.2624 47.3225L75.9624 46.02L74.6799 47.305L77.2599 49.885L77.2624 49.8825L77.2674 49.885L81.9049 45.24Z" fill="#FFC7B4"/>
<path d="M82.67 58.08C81.45 56.86 79.85 56.25 78.25 56.25C76.65 56.25 75.05 56.86 73.83 58.08C71.39 60.52 71.39 64.4775 73.83 66.9175C75.05 68.14 76.65 68.75 78.25 68.75C79.85 68.75 81.45 68.14 82.67 66.92C85.11 64.4775 85.11 60.5225 82.67 58.08Z" fill="#190083"/>
<path fill-rule="evenodd" clip-rule="evenodd" d="M74.8907 65.8568L74.8917 65.8579C75.8186 66.7867 77.0314 67.25 78.25 67.25C79.4688 67.25 80.6822 66.7865 81.6093 65.8593C83.4635 64.0026 83.4635 60.9974 81.6093 59.1407C81.6093 59.1406 81.6092 59.1406 81.6092 59.1405M81.6092 59.1405C80.6821 58.2135 79.4688 57.75 78.25 57.75C77.0312 57.75 75.8178 58.2135 74.8907 59.1407C73.0364 60.9949 73.0364 64.0026 74.8907 65.8568M82.67 66.92C81.45 68.14 79.85 68.75 78.25 68.75C76.65 68.75 75.05 68.14 73.83 66.9175C71.39 64.4775 71.39 60.52 73.83 58.08C75.05 56.86 76.65 56.25 78.25 56.25C79.85 56.25 81.45 56.86 82.67 58.08C85.11 60.5225 85.11 64.4775 82.67 66.92Z" fill="#190083"/>
<path d="M81.9049 60.865L80.6224 59.585L77.2624 62.9475L75.9624 61.645L74.6799 62.93L77.2599 65.51L77.2624 65.5075L77.2674 65.51L81.9049 60.865Z" fill="#FFC7B4"/>
</svg>
